<svg width="23" height="23" viewBox="0 0 23 23" fill="none" xmlns="http://www.w3.org/2000/svg">
<g id="Group">
<path id="Vector" d="M22.1666 11.613C22.167 9.50485 21.5634 7.44068 20.4271 5.66494C19.2908 3.88919 17.6694 2.47625 15.755 1.59341C13.8405 0.710574 11.7132 0.394816 9.62487 0.683527C7.53654 0.972237 5.57468 1.85332 3.97158 3.22246C2.36847 4.5916 1.19128 6.39144 0.579373 8.40887C-0.0325318 10.4263 -0.0535153 12.5768 0.518907 14.6058C1.09133 16.6348 2.23318 18.4573 3.80926 19.8574C5.38534 21.2576 7.32964 22.1768 9.41194 22.5062V14.801H6.61143V11.613H9.41194V9.18208C9.35164 8.6146 9.4169 8.0408 9.60309 7.50135C9.78928 6.9619 10.0918 6.47001 10.4893 6.06054C10.8868 5.65107 11.3695 5.33404 11.9032 5.13193C12.4369 4.92982 13.0085 4.84756 13.5775 4.891C14.4049 4.90187 15.2303 4.97377 16.0471 5.1061V7.82388H14.6572C14.4204 7.79292 14.1797 7.81559 13.9529 7.89022C13.7261 7.96486 13.519 8.08954 13.3469 8.25504C13.1747 8.42054 13.042 8.62263 12.9586 8.84634C12.8751 9.07006 12.843 9.30968 12.8647 9.54748V11.6158H15.9244L15.4349 14.8038H12.8591V22.5131C15.4545 22.1025 17.8181 20.779 19.5244 18.7807C21.2307 16.7824 22.1677 14.2407 22.1666 11.613V11.613Z" fill="#F6F6F6"/>
</g>
</svg>
