<svg width="23" height="23" viewBox="0 0 23 23" fill="none" xmlns="http://www.w3.org/2000/svg">
<g id="Group">
<path id="Vector" d="M17.1616 7.20605C17.8927 7.20605 18.4853 6.61339 18.4853 5.88232C18.4853 5.15125 17.8927 4.55859 17.1616 4.55859C16.4305 4.55859 15.8379 5.15125 15.8379 5.88232C15.8379 6.61339 16.4305 7.20605 17.1616 7.20605Z" fill="#F6F6F6"/>
<path id="Vector_2" d="M11.4462 17.0623C8.40438 17.0623 5.93066 14.5886 5.93066 11.5468C5.93066 8.50496 8.40438 6.03125 11.4462 6.03125C14.488 6.03125 16.9617 8.50496 16.9617 11.5468C16.9617 14.5886 14.488 17.0623 11.4462 17.0623ZM11.4462 8.78901C9.92528 8.78901 8.68843 10.0259 8.68843 11.5468C8.68843 13.0677 9.92528 14.3045 11.4462 14.3045C12.9671 14.3045 14.2039 13.0677 14.2039 11.5468C14.2039 10.0259 12.9671 8.78901 11.4462 8.78901Z" fill="#F6F6F6"/>
<path id="Vector_3" d="M16.9616 22.5777H5.93056C3.09558 22.5777 0.415039 19.8972 0.415039 17.0622V6.03115C0.415039 3.19617 3.09558 0.515625 5.93056 0.515625H16.9616C19.7966 0.515625 22.4771 3.19617 22.4771 6.03115V17.0622C22.4771 19.8972 19.7966 22.5777 16.9616 22.5777ZM5.93056 3.27339C4.64131 3.27339 3.1728 4.7419 3.1728 6.03115V17.0622C3.1728 18.3763 4.61649 19.82 5.93056 19.82H16.9616C18.2509 19.82 19.7194 18.3514 19.7194 17.0622V6.03115C19.7194 4.7419 18.2509 3.27339 16.9616 3.27339H5.93056Z" fill="#F6F6F6"/>
</g>
</svg>
