<svg width="23" height="19" viewBox="0 0 23 19" fill="none" xmlns="http://www.w3.org/2000/svg">
<g id="Group">
<path id="Vector" d="M22.3219 2.65231C21.4945 3.06597 20.6672 3.20386 19.702 3.34175C20.6672 2.79019 21.3566 1.96287 21.6324 0.859761C20.8051 1.41131 19.8399 1.68709 18.7368 1.96287C17.9094 1.13554 16.6684 0.583984 15.4275 0.583984C13.0834 0.583984 11.015 2.65231 11.015 5.13429C11.015 5.54796 11.015 5.82373 11.1529 6.09951C7.42995 5.96162 3.98274 4.16907 1.77653 1.41131C1.36287 2.10075 1.22498 2.79019 1.22498 3.75541C1.22498 5.27218 2.05231 6.65106 3.2933 7.47839C2.60386 7.47839 1.91442 7.20261 1.22498 6.92684C1.22498 9.13305 2.74175 10.9256 4.81007 11.3393C4.39641 11.4771 3.98274 11.4771 3.56908 11.4771C3.2933 11.4771 3.01753 11.4771 2.74175 11.3393C3.2933 13.1318 4.94796 14.5107 7.01628 14.5107C5.49951 15.7517 3.56908 16.4411 1.36287 16.4411C0.949206 16.4411 0.67343 16.4411 0.259766 16.4411C2.32809 17.6821 4.67218 18.5094 7.15417 18.5094C15.4275 18.5094 19.9778 11.615 19.9778 5.68584C19.9778 5.54796 19.9778 5.27218 19.9778 5.13429C20.943 4.44485 21.7703 3.61752 22.3219 2.65231Z" fill="#F6F6F6"/>
</g>
</svg>
